<?xml version="1.0" standalone="no"?>
<!DOCTYPE svg PUBLIC "-//W3C//DTD SVG 20010904//EN"
 "http://www.w3.org/TR/2001/REC-SVG-20010904/DTD/svg10.dtd">
<svg version="1.0" xmlns="http://www.w3.org/2000/svg"
 width="1280.000000pt" height="1214.000000pt" viewBox="0 0 1280.000000 1214.000000"
 preserveAspectRatio="xMidYMid meet">
<metadata>
Created by potrace 1.15, written by Peter Selinger 2001-2017
</metadata>
<g transform="translate(0.000000,1214.000000) scale(0.100000,-0.100000)"
fill="#000000" stroke="none">
<path d="M6030 12109 c-140 -48 -227 -62 -312 -50 -40 5 -107 13 -148 16 -41
4 -127 14 -190 22 -142 20 -467 23 -560 5 -256 -50 -434 -173 -528 -362 -63
-129 -83 -224 -89 -425 -4 -147 -2 -193 20 -340 14 -93 29 -201 33 -238 3 -38
12 -70 18 -72 6 -1 52 -7 101 -13 168 -19 317 -89 433 -202 150 -147 251 -371
268 -601 l7 -87 135 -21 c141 -22 151 -21 152 20 0 28 57 103 107 141 156 118
421 241 643 298 163 42 238 52 410 57 180 5 279 -3 366 -33 56 -19 64 -12 64
57 0 65 42 225 96 365 119 308 138 387 132 528 -4 86 -7 101 -46 179 -53 106
-142 199 -279 290 -98 65 -357 199 -488 252 -81 33 -133 79 -202 176 -27 38
-50 68 -53 68 -3 -1 -43 -14 -90 -30z"/>
<path d="M3012 11949 c-203 -36 -417 -152 -646 -351 -65 -57 -131 -111 -146
-121 -30 -19 -159 -47 -216 -47 l-34 0 0 -117 c0 -65 -5 -134 -10 -153 -5 -20
-36 -65 -67 -102 -32 -36 -80 -91 -106 -122 -216 -251 -300 -436 -301 -661 -1
-131 12 -190 68 -310 100 -211 295 -383 560 -491 103 -42 255 -81 347 -90 l67
-7 -11 49 c-17 82 -13 407 6 491 87 381 326 638 705 762 247 81 563 78 757 -8
l43 -19 7 75 c4 41 4 116 0 166 -25 336 -160 644 -367 843 -155 148 -302 214
-493 220 -60 2 -134 -1 -163 -7z"/>
<path d="M7951 11609 c-121 -24 -246 -116 -328 -241 -93 -143 -139 -288 -253
-788 -23 -102 -58 -234 -77 -293 -19 -60 -33 -110 -31 -111 2 -2 40 2 85 7 99
13 208 -5 295 -48 227 -111 364 -415 407 -903 6 -57 12 -106 14 -108 3 -3 123
-16 268 -30 738 -69 1151 -43 1418 88 378 186 362 610 -44 1198 -28 41 -78
118 -110 170 l-58 95 12 80 c6 44 14 92 17 106 5 24 2 27 -42 38 -87 22 -141
51 -175 94 -18 23 -56 68 -84 100 -109 126 -602 409 -864 496 -165 55 -332 73
-450 50z"/>
<path d="M3379 10438 c-17 -41 -84 -115 -123 -135 -16 -8 -61 -24 -100 -35
-240 -66 -402 -247 -462 -514 -25 -116 -16 -320 21 -434 33 -103 88 -213 149
-300 25 -35 43 -66 42 -68 -2 -2 -31 4 -64 12 -96 25 -234 36 -326 26 -387
-44 -630 -365 -696 -920 -16 -138 -13 -476 6 -659 20 -190 15 -292 -19 -383
l-25 -68 52 0 c119 0 181 -29 351 -164 107 -85 267 -183 370 -225 130 -55 217
-73 345 -75 140 -1 224 18 345 79 47 23 87 40 89 36 2 -3 7 -37 11 -76 18
-177 100 -389 189 -494 124 -143 188 -171 606 -256 192 -39 261 -66 321 -126
l37 -37 27 38 c54 77 99 102 331 181 235 79 314 120 314 160 0 10 -11 51 -24
91 -44 130 -70 370 -44 396 21 21 -7 38 -233 143 -118 54 -244 120 -281 145
-167 114 -278 296 -278 457 l0 64 -77 28 c-101 35 -300 132 -383 186 -109 72
-209 180 -263 285 -61 119 -103 247 -123 375 -32 199 -3 547 57 686 75 176
298 392 493 478 118 52 279 68 439 44 92 -14 253 -54 316 -79 l49 -19 7 95
c13 174 -18 497 -59 616 -30 86 -71 149 -138 215 -107 105 -243 166 -480 214
-179 37 -289 41 -423 15 -108 -22 -219 -12 -316 28 -12 5 -20 -2 -30 -26z"/>
<path d="M6280 10013 c-167 -25 -268 -51 -363 -93 -180 -80 -323 -176 -433
-293 -142 -149 -213 -300 -222 -469 -3 -55 -1 -98 4 -98 5 0 63 16 129 35 420
124 787 190 920 166 159 -29 455 -223 677 -443 98 -97 120 -136 162 -279 73
-254 58 -532 -40 -737 -59 -122 -210 -264 -399 -374 l-72 -42 -1 -70 c-2 -191
-127 -378 -354 -529 -167 -112 -299 -151 -478 -144 -129 5 -212 30 -307 92
l-51 34 -40 -77 c-68 -131 -87 -208 -87 -352 0 -109 4 -134 26 -197 74 -203
231 -345 432 -390 112 -25 368 -22 530 6 210 37 483 109 733 194 48 17 106 27
181 32 l111 7 17 65 c14 50 42 101 119 217 56 83 115 177 131 208 17 32 32 58
35 57 3 0 23 -23 45 -50 59 -74 216 -211 327 -285 258 -173 516 -260 804 -271
169 -6 268 4 403 43 261 76 507 256 668 489 34 50 75 106 91 125 16 19 52 70
81 113 29 43 66 87 84 97 31 19 253 94 315 106 18 4 34 10 37 14 3 4 -7 41
-21 81 -14 41 -28 101 -31 135 -5 60 -5 62 70 215 129 266 177 437 177 636 0
368 -225 646 -640 791 -437 152 -1037 141 -1504 -29 l-90 -32 34 -26 c171
-129 314 -346 377 -576 25 -90 28 -116 28 -265 0 -127 -4 -180 -18 -228 -118
-429 -465 -713 -1053 -862 -65 -16 -122 -30 -125 -30 -4 0 -12 30 -19 67 -16
93 -44 175 -91 262 -22 40 -38 75 -36 77 2 2 44 -1 93 -7 215 -27 426 25 572
141 100 79 192 230 228 376 16 62 23 75 79 130 35 34 85 71 113 84 53 24 59
40 15 40 -42 0 -90 57 -98 116 -62 469 -296 829 -594 918 -99 29 -237 18 -352
-28 -32 -13 -59 -20 -59 -14 0 5 8 25 19 46 33 64 61 171 67 256 15 194 -75
415 -230 566 -43 41 -46 47 -46 96 0 29 5 65 10 80 6 15 8 29 6 31 -3 3 -25
-9 -50 -27 -62 -42 -125 -70 -160 -70 -15 0 -67 17 -115 39 -111 50 -230 87
-338 106 -106 19 -306 18 -433 -2z"/>
<path d="M1145 9566 c-127 -30 -231 -91 -348 -205 -172 -166 -347 -444 -495
-783 -43 -97 -117 -351 -142 -481 -13 -72 -56 -150 -125 -225 l-36 -41 34 -48
c88 -125 96 -149 122 -345 61 -472 254 -899 529 -1173 193 -192 390 -299 659
-357 139 -30 466 -32 630 -5 324 55 623 157 957 328 180 92 195 102 186 124
-5 13 -14 15 -53 9 -27 -4 -138 -8 -248 -7 -314 0 -510 39 -720 143 -259 127
-430 320 -529 598 -69 194 -93 474 -61 722 52 415 222 811 439 1026 109 108
172 139 280 139 l79 -1 -28 21 c-15 11 -120 91 -232 177 -113 87 -241 182
-286 212 -101 67 -252 140 -332 161 -87 23 -209 27 -280 11z"/>
<path d="M4407 9179 c-211 -22 -405 -113 -530 -249 -70 -75 -107 -141 -157
-275 -22 -59 -61 -147 -87 -195 l-47 -88 52 -114 c28 -63 58 -139 67 -169 58
-191 110 -292 209 -411 109 -129 228 -200 414 -244 59 -15 115 -30 124 -35 10
-5 22 -28 29 -52 60 -225 229 -404 457 -483 109 -37 213 -54 386 -62 163 -8
187 -14 286 -69 3 -1 18 16 34 38 40 57 95 94 178 119 149 45 273 124 387 246
60 64 84 100 136 208 59 121 105 263 105 323 0 15 20 43 58 81 102 99 158 253
169 457 5 96 2 127 -22 239 -23 107 -27 144 -21 210 l6 81 -48 19 c-35 14 -77
50 -167 142 -98 100 -132 128 -185 153 -108 50 -172 63 -335 68 -177 6 -304
-15 -445 -73 -77 -32 -287 -160 -277 -170 2 -2 53 1 113 7 165 17 515 6 629
-20 167 -39 237 -87 337 -235 55 -79 122 -224 150 -321 19 -67 23 -103 22
-225 -1 -261 -62 -428 -214 -581 -99 -100 -182 -152 -330 -208 -165 -62 -276
-82 -490 -88 -205 -6 -311 7 -449 53 -460 153 -732 570 -672 1029 33 248 132
425 279 497 59 29 76 33 150 33 72 0 86 -3 98 -20 24 -32 60 -166 105 -380 72
-349 144 -556 228 -657 38 -44 122 -88 170 -88 127 0 287 123 456 351 69 92
75 104 61 117 -9 9 -17 14 -19 11 -188 -249 -286 -329 -404 -329 -66 0 -97 15
-150 73 -107 116 -170 336 -180 627 -4 127 -2 186 11 258 20 113 20 155 2 191
-36 69 -163 147 -301 184 -55 15 -245 39 -284 36 -9 -1 -51 -5 -94 -10z"/>
<path d="M4704 8702 c-92 -108 -174 -271 -215 -428 -20 -76 -24 -112 -24 -244
1 -143 3 -161 29 -235 68 -195 197 -326 406 -411 176 -71 464 -103 630 -70
104 21 239 71 316 117 160 95 294 272 355 469 33 105 34 284 2 385 -61 191
-201 335 -391 400 -105 36 -262 45 -347 20 -166 -48 -265 -153 -294 -310 -12
-67 -7 -111 21 -171 50 -109 199 -180 358 -172 l65 3 -43 23 c-53 28 -116 84
-154 136 -32 45 -38 117 -14 165 62 118 243 156 399 84 80 -38 144 -96 181
-163 23 -43 28 -62 28 -128 -1 -214 -164 -431 -386 -511 -64 -23 -85 -25 -216
-25 -118 0 -160 4 -229 23 -217 58 -383 179 -473 345 -32 60 -33 63 -32 181 1
126 28 282 78 453 23 79 23 83 6 92 -24 13 -20 15 -56 -28z"/>
<path d="M10540 6299 c-300 -35 -635 -206 -885 -453 l-100 -100 100 -8 c354
-29 474 -42 599 -63 197 -34 325 -68 412 -110 98 -47 279 -170 426 -287 112
-90 428 -374 428 -385 0 -3 -6 -1 -12 5 -7 5 -67 50 -133 99 -360 269 -628
421 -833 474 -238 61 -700 65 -1058 9 -113 -18 -111 -16 -67 -63 113 -123 154
-215 242 -544 89 -330 217 -611 423 -930 57 -88 60 -91 84 -81 15 7 22 17 19
27 -28 93 -46 375 -27 423 6 14 21 -6 61 -80 112 -204 269 -415 375 -502 131
-108 256 -160 406 -168 l95 -5 -37 41 c-122 135 -80 206 128 218 197 12 432
-36 623 -127 127 -60 208 -114 284 -187 31 -31 57 -51 57 -43 0 7 -25 105 -55
217 -31 113 -53 210 -49 216 11 17 97 2 156 -28 141 -71 332 -282 473 -523
l44 -73 20 32 c39 65 56 164 56 325 0 166 -10 238 -60 430 -57 219 -108 335
-206 461 -41 54 -122 133 -174 172 -25 18 -28 23 -15 32 19 12 81 13 113 1 13
-5 54 -33 91 -61 79 -61 79 -66 4 115 -193 467 -418 750 -752 948 l-71 42 80
3 c44 2 125 -4 179 -13 54 -8 101 -13 103 -11 3 2 -3 19 -12 36 -74 144 -431
337 -824 445 -261 72 -507 97 -711 74z"/>
<path d="M7571 6106 c-88 -193 -224 -368 -370 -475 -238 -176 -580 -247 -1062
-221 -180 10 -627 52 -693 66 -41 9 -47 -10 -25 -75 26 -74 75 -322 88 -443
14 -126 14 -379 0 -493 -29 -241 -118 -475 -244 -639 -19 -26 -35 -49 -35 -53
0 -7 295 3 496 17 457 33 872 82 1269 150 256 44 309 56 448 106 l128 46 94
-16 c51 -8 99 -17 105 -18 6 -2 21 29 34 67 34 105 44 119 183 262 113 115
141 138 228 186 489 267 769 530 861 807 17 53 26 201 13 215 -3 3 -68 1 -143
-5 -375 -28 -752 59 -1011 233 -128 86 -261 239 -296 340 -7 20 -16 37 -19 37
-3 0 -25 -42 -49 -94z"/>
<path d="M3236 6040 c-121 -169 -416 -290 -841 -347 -100 -13 -209 -17 -476
-17 l-346 -1 -7 -125 c-18 -359 5 -564 85 -756 109 -262 368 -490 749 -659
152 -67 534 -194 679 -226 104 -23 141 -48 227 -150 l65 -77 62 28 c90 41 179
63 229 58 23 -3 124 -22 223 -43 223 -46 454 -58 617 -31 192 32 371 115 498
233 318 294 413 851 239 1402 -36 112 -123 294 -177 368 l-38 52 -43 -55 c-91
-116 -236 -212 -386 -256 -116 -33 -332 -33 -455 1 -303 84 -581 283 -802 574
-32 42 -61 77 -63 77 -1 0 -19 -22 -39 -50z"/>
<path d="M8576 4575 c-86 -163 -167 -248 -411 -435 -361 -276 -556 -477 -827
-848 -139 -190 -137 -187 -111 -213 l20 -20 84 53 c164 106 321 178 384 178
22 0 16 -11 -59 -104 -168 -208 -327 -475 -379 -637 -63 -192 -57 -393 14
-560 12 -27 24 -49 28 -49 4 0 20 27 35 60 35 72 85 120 126 120 104 0 248
-314 295 -643 34 -237 5 -522 -71 -694 -14 -30 -24 -59 -22 -63 2 -4 98 66
213 156 116 90 213 163 216 164 14 1 42 -81 46 -136 15 -178 -131 -509 -355
-809 -57 -76 -59 -80 -38 -88 60 -24 272 20 431 89 246 108 607 380 740 558
87 116 150 245 190 389 17 58 17 58 37 40 62 -56 62 -125 1 -327 -9 -32 109
78 239 221 386 423 529 689 602 1126 l23 132 25 -50 c27 -53 64 -170 93 -294
l18 -74 33 39 c153 179 189 802 78 1342 -108 528 -339 876 -771 1165 -112 75
-293 169 -407 212 -79 30 -91 31 -81 8 4 -10 34 -94 67 -188 97 -276 158 -496
210 -755 33 -163 33 -416 0 -575 -36 -173 -87 -361 -151 -553 -57 -169 -161
-446 -166 -440 -1 2 21 98 50 213 121 478 167 812 145 1045 -30 314 -202 762
-462 1202 -38 65 -73 120 -78 123 -5 3 -29 -33 -54 -80z"/>
</g>
</svg>
