<?xml version="1.0" standalone="no"?>
<!DOCTYPE svg PUBLIC "-//W3C//DTD SVG 20010904//EN"
 "http://www.w3.org/TR/2001/REC-SVG-20010904/DTD/svg10.dtd">
<svg version="1.0" xmlns="http://www.w3.org/2000/svg"
 width="912.000000pt" height="1280.000000pt" viewBox="0 0 912.000000 1280.000000"
 preserveAspectRatio="xMidYMid meet">
<metadata>
Created by potrace 1.15, written by Peter Selinger 2001-2017
</metadata>
<g transform="translate(0.000000,1280.000000) scale(0.100000,-0.100000)"
fill="#000000" stroke="none">
<path d="M4160 12785 c-63 -8 -167 -25 -230 -37 -96 -18 -146 -21 -305 -19
-274 3 -556 -25 -755 -75 -281 -71 -415 -214 -366 -394 13 -51 13 -56 -6 -82
l-20 -28 -28 20 c-106 76 -274 64 -380 -27 -38 -33 -50 -38 -95 -38 -64 0
-117 -33 -145 -91 -35 -70 -25 -110 46 -195 51 -61 110 -188 131 -284 14 -67
16 -117 13 -305 -8 -463 -6 -599 14 -705 73 -391 294 -707 667 -952 301 -197
720 -342 1118 -386 l114 -12 18 -87 c23 -117 38 -160 135 -390 157 -373 392
-1084 558 -1691 118 -431 240 -943 356 -1495 32 -156 36 -182 21 -176 -9 4
-56 18 -106 32 -80 22 -109 25 -265 25 -143 0 -194 -4 -278 -22 -290 -62 -393
-115 -797 -415 -231 -172 -332 -229 -445 -252 -142 -29 -220 -93 -220 -179 0
-57 33 -104 95 -135 83 -41 103 -59 188 -164 109 -136 203 -225 317 -301 216
-145 465 -232 805 -281 88 -13 185 -18 365 -18 278 0 365 11 535 70 55 19 107
37 116 40 14 5 21 -23 48 -193 183 -1148 231 -2047 155 -2912 -19 -218 -16
-240 51 -299 134 -118 305 -59 344 118 17 79 42 425 50 709 26 892 -71 1869
-314 3151 -117 619 -394 1944 -429 2055 -2 6 47 10 133 11 143 1 254 18 396
58 393 113 789 381 1019 688 49 65 180 274 189 301 1 4 29 1 62 -8 33 -8 99
-21 148 -27 72 -10 87 -15 87 -29 0 -28 -26 -135 -60 -244 -104 -337 -247
-974 -334 -1485 -122 -716 -258 -1959 -327 -2975 -17 -258 -23 -1074 -10
-1317 30 -534 122 -1175 183 -1264 27 -40 90 -74 137 -74 66 0 150 66 166 131
4 15 -3 73 -14 130 -100 505 -141 972 -141 1614 0 508 18 862 75 1495 31 338
107 1054 140 1327 14 112 25 207 25 213 0 6 26 -8 58 -30 370 -252 940 -235
1522 46 153 74 349 195 403 249 33 34 36 81 7 118 -19 24 -432 254 -686 380
-257 128 -466 208 -651 249 -104 23 -352 31 -441 15 l-44 -8 7 43 c12 73 93
445 135 618 47 194 72 286 129 473 23 75 48 180 54 234 l13 96 94 19 c136 27
375 110 515 178 231 113 440 271 569 432 130 160 198 301 236 489 19 92 21
125 16 279 -3 111 -13 217 -26 290 -12 63 -24 176 -27 251 -7 159 9 253 57
334 57 97 72 134 65 166 -9 42 -49 86 -91 99 -19 7 -55 31 -79 55 -105 101
-345 237 -523 295 -242 78 -449 97 -901 81 -191 -6 -363 -7 -434 -2 -172 12
-221 -4 -262 -87 -14 -28 -25 -39 -35 -36 -35 12 -167 27 -191 21 -14 -4 -41
-17 -61 -30 -19 -13 -50 -27 -70 -31 -44 -8 -96 -58 -104 -101 -5 -26 0 -44
20 -77 102 -171 121 -240 113 -418 -6 -149 -21 -211 -141 -570 -46 -140 -94
-304 -105 -363 -25 -129 -27 -312 -6 -432 8 -44 11 -83 7 -86 -4 -3 -74 -18
-157 -34 -558 -102 -966 -273 -1137 -476 -23 -27 -45 -46 -48 -42 -4 5 -19 49
-34 98 -103 344 -282 856 -411 1175 -46 113 -88 225 -95 250 -6 25 -13 52 -16
61 -4 13 14 21 93 39 417 96 756 338 921 659 84 162 132 377 132 594 0 267
-49 445 -240 862 -171 373 -170 372 -186 540 -7 83 -23 208 -34 278 -20 122
-20 131 -5 185 10 31 35 91 56 133 51 98 52 143 7 195 -73 83 -173 85 -240 5
l-25 -29 -44 35 c-51 41 -128 79 -202 100 -76 21 -291 25 -427 8z m-981 -220
c-3 -2 -52 -21 -109 -40 -134 -47 -269 -110 -360 -169 -40 -26 -75 -45 -78
-42 -2 3 3 26 12 50 37 96 176 160 411 191 122 16 130 16 124 10z"/>
<path d="M1661 8646 c-25 -15 -58 -26 -80 -26 -63 0 -107 -19 -145 -60 -20
-22 -36 -44 -36 -50 0 -5 -18 -14 -40 -20 -21 -6 -53 -22 -71 -37 -30 -25 -32
-26 -42 -8 -6 11 -21 30 -33 42 -42 42 -137 23 -162 -32 -19 -41 -15 -62 28
-133 56 -93 74 -157 73 -272 -1 -124 -18 -199 -109 -472 -101 -304 -117 -386
-111 -553 6 -158 29 -254 92 -381 105 -215 334 -378 610 -435 50 -10 105 -19
123 -19 l34 0 -7 -42 c-4 -24 -27 -108 -50 -188 -23 -80 -63 -233 -89 -340
-27 -107 -49 -201 -52 -207 -2 -8 -28 6 -70 37 -119 91 -221 130 -389 150
-111 13 -178 9 -445 -25 -271 -35 -328 -38 -449 -25 l-108 12 -47 -27 c-107
-63 -115 -139 -22 -198 67 -42 164 -136 287 -275 171 -195 265 -275 406 -346
130 -65 346 -114 546 -123 149 -7 136 16 107 -188 -49 -337 -125 -1015 -169
-1505 -98 -1093 -87 -1839 39 -2528 32 -173 44 -208 85 -240 65 -51 168 -26
208 52 l20 38 -22 117 c-33 169 -67 413 -85 607 -31 329 -41 906 -20 1151 l5
61 94 -44 c147 -70 224 -87 395 -88 174 -1 257 18 416 95 128 61 235 141 352
263 110 116 147 173 133 208 -11 30 -57 68 -82 68 -28 0 -187 59 -264 98 -38
19 -156 88 -262 153 -106 65 -224 134 -263 154 -97 49 -227 91 -340 111 -52 9
-96 17 -98 19 -8 7 91 869 134 1165 69 478 201 1130 287 1415 13 44 36 121 51
170 15 50 32 126 38 170 6 44 12 81 12 82 1 1 37 9 81 18 192 40 446 147 615
259 237 158 396 366 462 602 20 72 22 101 22 344 0 236 -2 276 -22 367 -12 55
-22 115 -22 131 0 46 33 141 68 196 18 28 32 61 32 73 0 63 -68 121 -125 107
-24 -6 -72 -53 -93 -90 -9 -16 -14 -15 -49 16 -21 19 -80 55 -130 79 -91 44
-91 44 -86 77 14 83 -59 168 -174 204 -84 26 -230 41 -388 40 -88 -1 -145 4
-215 20 -54 12 -149 23 -220 26 -121 5 -126 4 -169 -20z m977 -156 c56 -24 95
-61 90 -84 -3 -15 -81 16 -258 102 -47 23 113 6 168 -18z m-1168 -3700 c0 -5
-5 -10 -11 -10 -5 0 -7 5 -4 10 3 6 8 10 11 10 2 0 4 -4 4 -10z m1120 -2274
c0 -3 -4 -8 -10 -11 -5 -3 -10 -1 -10 4 0 6 5 11 10 11 6 0 10 -2 10 -4z"/>
</g>
</svg>
